# xmcd CD database file
#
# Track frame offsets:
#	150
#	15951
#	30593
#	47116
#	57117
#	71659
#	86391
#	100619
#	112906
#	126584
#	142495
#
# Disc length: 2199 seconds
#
# Revision: 0
# Processed by: cddbd v1.5.1PL2 Copyright (c) Steve Scherf et al.
# Submitted via: CDex 1.51
#
DISCID=9008950b
DTITLE=J.D. Hobson - Desert Rose
DYEAR=2004
DGENRE=Blues
TTITLE0=Illinois Blues
TTITLE1=Desert Road
TTITLE2=Wealth Won't Save Your Soal
TTITLE3=Make Me a Pallet
TTITLE4=Bury Me Standing
TTITLE5=Hard Times
TTITLE6=Driven
TTITLE7=East St. Louis Blues
TTITLE8=Halfway Home
TTITLE9=Five Star Day
TTITLE10=Jinx Blues
EXTD=YEAR: 2004
EXTT0=
EXTT1=
EXTT2=
EXTT3=
EXTT4=
EXTT5=
EXTT6=
EXTT7=
EXTT8=
EXTT9=
EXTT10=
PLAYORDER=
